# xmcd
#
# Track frame offsets:
#	150
#	6421
#	26274
#	51265
#	72898
#	95670
#	107525
#	130306
#	155504
#	179506
#	202327
#
# Disc length: 3416 seconds
# Revision: 0
# Processed by: cddbd v1.5.2PL0 Copyright (c) Steve Scherf et al.
# Submitted via: dBpowerAMP V12.0
#
DISCID=9a0d560b
DTITLE=The Absence - Enemy Unbound
DYEAR=2010
DGENRE=Metal
TTITLE0=Vertigo
TTITLE1=Erased
TTITLE2=Deepest Wound
TTITLE3=Maelstrom
TTITLE4=Enemy Unbound
TTITLE5=Solace
TTITLE6=The Bridge
TTITLE7=Wartorn
TTITLE8=Hidden in White
TTITLE9=Vengeance and Victory
TTITLE10=Triumph
EXTD=
EXTT0=
EXTT1=
EXTT2=
EXTT3=
EXTT4=
EXTT5=
EXTT6=
EXTT7=
EXTT8=
EXTT9=
EXTT10=
PLAYORDER=
